# xmcd
#
# Track frame offsets: 
#        150
#        17047
#        46737
#        56595
#        72407
#        83870
#        106772
#        125400
#        143562
#        155632
#        167462
#        185697
#        198627
#        224770
#        244295
#        258772
#        274535
#        291885
#
# Disc length: 4012 seconds
#
# Revision: 0
# Processed by: cddbd v1.5.2PL0 Copyright (c) Steve Scherf et al.
# Submitted via: ExactAudioCopyFreeDBPlugin 1.0
#
DISCID=090faa12
DTITLE=Various Artist - Bob Riedy's Blues Shows Of The 70's - Vol 2
DYEAR=2004
DGENRE=Blues
TTITLE0=Bob Riedy Blues Band - Little Big Band Jam
TTITLE1=Richard 'Hub Cap' Robinson - Cherry Red
TTITLE2=John Littlejohn - It's Love Baby (24 Hours A day)
TTITLE3=John Littlejohn - Reconsider Baby
TTITLE4=Richard 'Hub Cap' Robinson - Keep On Looking
TTITLE5=Richard 'Hub Cap' Robinson - Haint
TTITLE6=Bob Riedy Blues Band - Shuffle And Stomp
TTITLE7=Magic Slim With The Teardrops - You Upset Me Baby
TTITLE8=Johnny Young - Why Did You Break My Heart
TTITLE9=Jimmy Rogers - Walking By Myself
TTITLE10=Carey Bell - Sweet Home Chicago
TTITLE11=Carey Bell - Tomorrow Night
TTITLE12=Carey Bell - Hard To Leave You alone
TTITLE13=Magic Slim With The Teardrops - Cold Women With Warm Hearts
TTITLE14=Bob Riedy Blues Band - Road Dust
TTITLE15=Richard 'Hub Cap' Robinson - Drinkin' Wine
TTITLE16=Big Twist With The Mellow Fellows - Grits Ain't Groceries
TTITLE17=Bob Riedy Blues Band - Just Off Halsted
EXTD=
EXTT0=
EXTT1=
EXTT2=
EXTT3=
EXTT4=
EXTT5=
EXTT6=
EXTT7=
EXTT8=
EXTT9=
EXTT10=
EXTT11=
EXTT12=
EXTT13=
EXTT14=
EXTT15=
EXTT16=
EXTT17=
PLAYORDER=
